<?xml version="1.0" standalone="no"?>
<!DOCTYPE svg PUBLIC "-//W3C//DTD SVG 20010904//EN"
 "http://www.w3.org/TR/2001/REC-SVG-20010904/DTD/svg10.dtd">
<svg version="1.0" xmlns="http://www.w3.org/2000/svg"
 width="368.000000pt" height="368.000000pt" viewBox="0 0 368.000000 368.000000"
 preserveAspectRatio="xMidYMid meet">
<metadata>
Created by potrace 1.14, written by Peter Selinger 2001-2017
</metadata>
<g transform="translate(0.000000,368.000000) scale(0.100000,-0.100000)"
fill="#000000" stroke="none">
<path d="M815 2859 c-354 -46 -566 -232 -451 -399 l23 -34 -73 -69 c-145 -135
-253 -344 -254 -488 -1 -191 185 -313 405 -266 190 41 343 136 562 350 62 61
107 98 116 94 8 -3 21 -21 30 -40 16 -34 25 -71 62 -271 9 -50 28 -119 43
-155 l27 -65 -53 -50 c-81 -76 -102 -136 -50 -136 13 0 18 5 15 14 -4 9 18 36
53 70 l59 57 83 -84 c66 -67 100 -92 168 -125 139 -69 273 -87 408 -57 88 20
142 52 166 97 17 31 29 38 80 53 229 63 488 326 526 533 10 57 9 67 -7 90
l-18 27 -5 -76 c-7 -93 -38 -161 -122 -265 -102 -127 -237 -228 -370 -278
l-65 -25 -12 35 c-21 58 -168 159 -259 179 -18 4 -36 14 -39 22 -11 28 37 151
87 227 115 171 282 281 505 333 112 25 367 25 480 -1 83 -19 322 -103 330
-115 2 -4 -15 -18 -38 -31 -163 -89 -326 -253 -545 -545 -253 -337 -447 -537
-577 -594 -93 -41 -198 -53 -266 -29 -87 30 -136 104 -125 190 5 38 4 49 -6
46 -23 -8 -32 -64 -18 -112 26 -95 108 -156 221 -164 252 -18 514 185 864 668
168 232 346 422 476 509 l59 40 59 -24 c114 -47 252 -39 259 13 3 18 -1 23
-13 20 -9 -1 -15 -7 -15 -12 5 -28 -71 -34 -163 -12 -67 16 -97 36 -55 36 15
0 29 4 33 9 9 15 -32 23 -68 13 -28 -8 -46 -4 -118 26 -205 85 -417 127 -594
118 -392 -20 -722 -249 -790 -551 l-12 -50 -114 4 c-130 3 -215 -9 -308 -46
-62 -25 -65 -25 -78 -7 -21 29 -40 103 -58 226 -16 109 -53 236 -76 264 -9 11
-7 14 9 14 41 0 217 52 290 85 116 54 224 132 382 276 80 72 181 159 225 192
163 122 331 174 431 132 26 -11 34 -11 32 -2 -15 44 -156 53 -273 17 -153 -47
-258 -120 -475 -325 -164 -155 -247 -221 -337 -264 -101 -50 -305 -102 -317
-82 -11 17 279 377 416 517 134 138 159 174 118 174 -22 0 -58 -29 -190 -155
-52 -50 -120 -104 -150 -121 -61 -34 -221 -104 -238 -104 -6 0 -18 25 -27 55
-19 66 -65 116 -122 133 -137 41 -361 -11 -519 -119 -39 -26 -43 -27 -56 -11
-41 46 -50 110 -23 161 20 39 99 108 159 138 145 74 446 104 638 65 53 -11
137 -37 188 -57 50 -20 95 -34 98 -30 17 17 -85 62 -214 95 -150 39 -282 47
-429 29z m167 -303 c47 -23 75 -67 80 -126 l3 -45 -60 -12 c-162 -34 -397 -31
-499 7 -87 33 -87 40 2 91 42 25 95 53 117 62 110 47 283 58 357 23z m336
-148 c-25 -29 -82 -101 -127 -159 l-82 -106 -45 5 c-65 7 -86 -27 -42 -68 l22
-20 -104 -106 c-174 -176 -316 -271 -472 -314 -92 -25 -143 -25 -213 1 -104
39 -154 105 -162 214 -11 136 62 297 200 441 49 51 96 96 106 99 10 3 38 -6
62 -19 99 -56 291 -71 493 -41 55 8 102 13 104 10 3 -3 -11 -38 -32 -79 -53
-108 -147 -187 -272 -230 -26 -9 -60 -16 -76 -16 -33 0 -37 -16 -8 -25 56 -18
267 86 333 164 39 46 77 115 91 163 12 39 16 42 87 68 41 14 97 38 124 52 28
14 52 24 54 23 2 -2 -17 -28 -41 -57z m-246 -310 c-9 -9 -15 -9 -24 0 -9 9 -7
12 12 12 19 0 21 -3 12 -12z m744 -536 c5 -4 16 -31 22 -61 24 -107 94 -161
220 -169 39 -2 72 -8 72 -11 0 -38 -89 -84 -196 -102 -137 -22 -321 32 -440
131 -45 37 -124 127 -124 141 0 10 94 48 157 63 61 15 271 21 289 8z m161 -43
c81 -34 140 -90 158 -146 6 -22 4 -23 -47 -23 -71 0 -121 15 -159 47 -36 30
-68 94 -69 135 0 26 1 26 36 17 19 -6 56 -19 81 -30z"/>
<path d="M1786 1920 c-26 -29 -46 -41 -76 -46 -46 -8 -54 -24 -11 -24 l30 0
-14 -34 c-10 -24 -11 -37 -4 -41 6 -4 11 -5 13 -4 1 2 13 21 25 42 21 34 26
37 67 37 24 0 44 5 44 10 0 6 -10 10 -23 10 -36 0 -39 10 -12 42 23 27 25 48
6 48 -5 0 -25 -18 -45 -40z"/>
</g>
</svg>
